<svg width="18" height="17" viewBox="0 0 18 17" fill="none" xmlns="http://www.w3.org/2000/svg">
<path d="M6.99985 10.6667C6.99985 10.6667 8.0936 11.9167 9.91652 11.9167C11.7394 11.9167 12.8332 10.6667 12.8332 10.6667M12.2082 6.5H12.2165M7.62485 6.5H7.63318M9.91652 15.6667C13.8285 15.6667 16.9999 12.4953 16.9999 8.58333C16.9999 4.67132 13.8285 1.5 9.91652 1.5C6.0045 1.5 2.83318 4.67132 2.83318 8.58333C2.83318 9.375 2.96306 10.1363 3.20266 10.8472C3.29283 11.1147 3.33791 11.2484 3.34604 11.3512C3.35407 11.4527 3.348 11.5238 3.32289 11.6225C3.29747 11.7223 3.24135 11.8262 3.12909 12.034L1.76605 14.557C1.57162 14.9168 1.47441 15.0968 1.49617 15.2356C1.51512 15.3566 1.58631 15.4631 1.69083 15.5269C1.81083 15.6001 2.01427 15.579 2.42113 15.537L6.68865 15.0958C6.81789 15.0825 6.8825 15.0758 6.9414 15.0781C6.99933 15.0803 7.04022 15.0857 7.09671 15.0987C7.15415 15.112 7.22637 15.1398 7.37081 15.1954C8.16086 15.4998 9.0192 15.6667 9.91652 15.6667ZM12.6249 6.5C12.6249 6.73012 12.4383 6.91667 12.2082 6.91667C11.9781 6.91667 11.7915 6.73012 11.7915 6.5C11.7915 6.26988 11.9781 6.08333 12.2082 6.08333C12.4383 6.08333 12.6249 6.26988 12.6249 6.5ZM8.04152 6.5C8.04152 6.73012 7.85497 6.91667 7.62485 6.91667C7.39473 6.91667 7.20818 6.73012 7.20818 6.5C7.20818 6.26988 7.39473 6.08333 7.62485 6.08333C7.85497 6.08333 8.04152 6.26988 8.04152 6.5Z" stroke="white" stroke-width="1.66667" stroke-linecap="round" stroke-linejoin="round"/>
</svg>
