<svg width="20" height="20" viewBox="0 0 20 20" fill="none" xmlns="http://www.w3.org/2000/svg">
<path d="M4.16675 7.50002V12.5H2.50008C1.83341 12.5 1.66675 11.9445 1.66675 11.6667V8.33335C1.66675 8.05558 1.83341 7.50002 2.50008 7.50002H4.16675ZM4.16675 7.50002C4.16675 4.58335 6.25008 1.66669 10.0001 1.66669C13.7501 1.66669 15.8334 4.58335 15.8334 7.50002M15.8334 7.50002V12.5M15.8334 7.50002H17.5001C17.7779 7.50002 18.3334 7.66669 18.3334 8.33335V11.6667C18.3334 11.9445 18.1667 12.5 17.5001 12.5H15.8334M15.8334 12.5C15.8334 13.75 15.0001 18.3334 10.0001 18.3334M7.50008 12.5C9.34218 13.6111 10.658 13.6111 12.5001 12.5" stroke="#667085" stroke-width="1.66667" stroke-linecap="round" stroke-linejoin="round"/>
</svg>
